<svg width="20" height="21" viewBox="0 0 20 21" fill="none" xmlns="http://www.w3.org/2000/svg">
<g clip-path="url(#clip0_40_7936)">
<path fill-rule="evenodd" clip-rule="evenodd" d="M20 10.5C20 16.0228 15.5228 20.5 10 20.5C4.47715 20.5 0 16.0228 0 10.5C0 4.97715 4.47715 0.5 10 0.5C15.5228 0.5 20 4.97715 20 10.5ZM8.38268 4.57612C8.75636 4.7309 9 5.09554 9 5.5V15.5C9 16.0523 8.55228 16.5 8 16.5C7.44772 16.5 7 16.0523 7 15.5V7.91421L5.70711 9.20711C5.31658 9.59763 4.68342 9.59763 4.29289 9.20711C3.90237 8.81658 3.90237 8.18342 4.29289 7.79289L7.29289 4.79289C7.57889 4.5069 8.00901 4.42134 8.38268 4.57612ZM11 15.5C11 15.9045 11.2436 16.2691 11.6173 16.4239C11.991 16.5787 12.4211 16.4931 12.7071 16.2071L15.7071 13.2071C16.0976 12.8166 16.0976 12.1834 15.7071 11.7929C15.3166 11.4024 14.6834 11.4024 14.2929 11.7929L13 13.0858V5.5C13 4.94771 12.5523 4.5 12 4.5C11.4477 4.5 11 4.94771 11 5.5V15.5Z" fill="#767B8F"></path>
</g><defs><clipPath id="clip0_40_7936"><rect width="20" height="20" fill="white" transform="translate(0 0.5)"></rect></clipPath></defs></svg>