<svg width="35" height="26" viewBox="0 0 35 26" fill="none" xmlns="http://www.w3.org/2000/svg"><path d="M19.0463 16.1669C24.8197 13.3477 28.8077 9.64448 27.9537 7.89563C27.0997 6.14678 21.7271 7.01452 15.9537 9.83377C10.1803 12.653 6.1923 16.3562 7.04629 18.105C7.90028 19.8539 13.2729 18.9862 19.0463 16.1669Z" fill="none"></path>
<path d="M17.3825 24.6334C19.3287 24.6334 20.9064 19.4249 20.9064 13C20.9064 6.57512 19.3287 1.3667 17.3825 1.3667C15.4363 1.3667 13.8586 6.57512 13.8586 13C13.8586 19.4249 15.4363 24.6334 17.3825 24.6334Z" fill="none">
</path><path d="M27.9537 18.0917C28.8077 16.3428 24.8197 12.6396 19.0463 9.82039C13.2729 7.00114 7.90028 6.13341 7.04629 7.88226C6.1923 9.63111 10.1803 13.3343 15.9537 16.1535C21.7271 18.9728 27.0997 19.8405 27.9537 18.0917Z" fill="none"></path>
<path d="M19.0463 16.1669C24.8197 13.3477 28.8077 9.64448 27.9537 7.89563C27.0997 6.14678 21.7271 7.01452 15.9537 9.83377C10.1803 12.653 6.1923 16.3562 7.04629 18.105C7.90028 19.8539 13.2729 18.9862 19.0463 16.1669Z" stroke="white" stroke-miterlimit="10" stroke-linecap="round" stroke-linejoin="round"></path>
<path d="M17.3825 24.6334C19.3287 24.6334 20.9064 19.4249 20.9064 13C20.9064 6.57512 19.3287 1.3667 17.3825 1.3667C15.4363 1.3667 13.8586 6.57512 13.8586 13C13.8586 19.4249 15.4363 24.6334 17.3825 24.6334Z" stroke="white" stroke-miterlimit="10" stroke-linecap="round" stroke-linejoin="round"></path>
<path d="M27.9537 18.0917C28.8077 16.3428 24.8197 12.6396 19.0463 9.82039C13.2729 7.00114 7.90028 6.13341 7.04629 7.88226C6.1923 9.63111 10.1803 13.3343 15.9537 16.1535C21.7271 18.9728 27.0997 19.8405 27.9537 18.0917Z" stroke="white" stroke-miterlimit="10" stroke-linecap="round" stroke-linejoin="round"></path></svg>