<svg xmlns="http://www.w3.org/2000/svg" width="16" height="16" viewBox="0 0 16 16" fill="none"><path d="M6.00033 2.66663H4.80033C4.05359 2.66663 3.68022 2.66663 3.395 2.81195C3.14412 2.93978 2.94015 3.14376 2.81232 3.39464C2.66699 3.67985 2.66699 4.05322 2.66699 4.79996L2.66699 11.2C2.66699 11.9467 2.66699 12.3201 2.81232 12.6053C2.94015 12.8562 3.14412 13.0601 3.395 13.188C3.68022 13.3333 4.05359 13.3333 4.80033 13.3333L11.2003 13.3333C11.9471 13.3333 12.3204 13.3333 12.6056 13.188C12.8565 13.0601 13.0605 12.8562 13.1883 12.6053C13.3337 12.3201 13.3337 11.9467 13.3337 11.2V9.99996M9.33366 2.66663L13.3337 2.66663M13.3337 2.66663V6.66663M13.3337 2.66663L7.33366 8.66663" stroke="currentColor" stroke-width="2" stroke-linecap="round" stroke-linejoin="round" vector-effect="non-scaling-stroke"></path></svg>