<svg xmlns="http://www.w3.org/2000/svg" width="20" height="20" viewBox="0 0 20 20" fill="none" class="tw-text-grey-200"><path fill-rule="evenodd" clip-rule="evenodd" d="M9.99984 1.66663C10.4601 1.66663 10.8332 2.03972 10.8332 2.49996V3.33329C10.8332 3.79353 10.4601 4.16663 9.99984 4.16663C9.5396 4.16663 9.1665 3.79353 9.1665 3.33329V2.49996C9.1665 2.03972 9.5396 1.66663 9.99984 1.66663ZM1.6665 9.99996C1.6665 9.53972 2.0396 9.16663 2.49984 9.16663H3.33317C3.79341 9.16663 4.1665 9.53972 4.1665 9.99996C4.1665 10.4602 3.79341 10.8333 3.33317 10.8333H2.49984C2.0396 10.8333 1.6665 10.4602 1.6665 9.99996ZM15.8332 9.99996C15.8332 9.53972 16.2063 9.16663 16.6665 9.16663H17.4998C17.9601 9.16663 18.3332 9.53972 18.3332 9.99996C18.3332 10.4602 17.9601 10.8333 17.4998 10.8333H16.6665C16.2063 10.8333 15.8332 10.4602 15.8332 9.99996Z" fill="white"></path>
<path fill-rule="evenodd" clip-rule="evenodd" d="M14.1241 5.87517C13.7987 5.54973 13.7987 5.0221 14.1241 4.69666L14.7134 4.1074C15.0388 3.78197 15.5665 3.78197 15.8919 4.1074C16.2173 4.43284 16.2173 4.96048 15.8919 5.28592L15.3026 5.87517C14.9772 6.20061 14.4496 6.20061 14.1241 5.87517Z" fill="white"></path>
<path fill-rule="evenodd" clip-rule="evenodd" d="M1.6665 13.3333C1.6665 12.8731 2.0396 12.5 2.49984 12.5H17.4998C17.9601 12.5 18.3332 12.8731 18.3332 13.3333C18.3332 13.7935 17.9601 14.1666 17.4998 14.1666H2.49984C2.0396 14.1666 1.6665 13.7935 1.6665 13.3333ZM4.99984 16.6666C4.99984 16.2064 5.37293 15.8333 5.83317 15.8333H14.1665C14.6267 15.8333 14.9998 16.2064 14.9998 16.6666C14.9998 17.1269 14.6267 17.5 14.1665 17.5H5.83317C5.37293 17.5 4.99984 17.1269 4.99984 16.6666Z" fill="white"></path
><path fill-rule="evenodd" clip-rule="evenodd" d="M4.10785 4.1074C4.43328 3.78197 4.96092 3.78197 5.28636 4.1074L5.87561 4.69666C6.20105 5.0221 6.20105 5.54973 5.87561 5.87517C5.55018 6.20061 5.02254 6.20061 4.6971 5.87517L4.10785 5.28591C3.78241 4.96048 3.78241 4.43284 4.10785 4.1074Z" fill="white"></path>
<path fill-rule="evenodd" clip-rule="evenodd" d="M6.6665 10.8333C6.20627 10.8333 5.83317 10.4602 5.83317 9.99996C5.83317 7.69877 7.69865 5.83329 9.99984 5.83329C12.301 5.83329 14.1665 7.69877 14.1665 9.99996C14.1665 10.4602 13.7934 10.8333 13.3332 10.8333C11.9184 10.8333 8.08126 10.8333 6.6665 10.8333Z" fill="white"></path></svg>