<svg xmlns="http://www.w3.org/2000/svg" width="24" height="24" viewBox="0 0 24 24" fill="none"><g clip-path="url(#clip0_2573_74090)">
<path d="M12 22.9875C18.0751 22.9875 23 18.0653 23 11.9935C23 5.92168 18.0751 0.999512 12 0.999512C5.92487 0.999512 1 5.92168 1 11.9935C1 18.0653 5.92487 22.9875 12 22.9875Z" stroke="#2E2F37" stroke-width="2" stroke-linecap="round" stroke-linejoin="round"></path>
<path d="M7.31374 11.0095C6.94478 9.96836 7.48967 8.82526 8.53079 8.45629C9.57192 8.08732 10.715 8.63222 11.084 9.67334" stroke="#2E2F37" stroke-width="2" stroke-linecap="round" stroke-linejoin="round"></path>
<path d="M13.9119 8.67122C13.5429 7.6301 14.0878 6.487 15.1289 6.11803C16.1701 5.74907 17.3132 6.29396 17.6821 7.33508" stroke="#2E2F37" stroke-width="2" stroke-linecap="round" stroke-linejoin="round"></path><path d="M8.6499 14.7798C10.0385 16.7323 12.6907 17.5915 15.1705 16.7127C17.6503 15.8339 19.1696 13.4963 19.0181 11.1054" stroke="#2E2F37" stroke-width="2" stroke-linecap="round" stroke-linejoin="round"></path>
</g><defs><clipPath id="clip0_2573_74090">
<rect width="24" height="24" fill="none">
</rect></clipPath></defs></svg>