<svg xmlns="http://www.w3.org/2000/svg" width="24" height="24" viewBox="0 0 24 24" fill="none" class="tw-text-royal-500"><path d="M12 3L13.2913 5.50633C13.7387 6.37483 14.7481 6.79295 15.6787 6.49523L18.364 5.63604L17.5048 8.32135C17.2071 9.25186 17.6252 10.2613 18.4937 10.7087L21 12L18.7621 13.153C17.782 13.6579 17.3954 14.8607 17.8977 15.8421L20.0526 20.0526L15.8421 17.8977C14.8607 17.3954 13.6579 17.782 13.153 18.7621L12 21L10.7087 18.4937C10.2613 17.6252 9.25186 17.2071 8.32135 17.5048L5.63604 18.364L6.49523 15.6787C6.79295 14.7481 6.37483 13.7387 5.50633 13.2913L3 12L5.23792 10.847C6.21796 10.3421 6.60459 9.13933 6.10231 8.15792L3.94737 3.94737L8.15792 6.10231C9.13932 6.60459 10.3421 6.21796 10.847 5.23792L12 3Z" stroke="currentColor" stroke-width="2" stroke-linejoin="round"></path></svg>