<svg width="24" height="24" viewBox="0 0 24 24" fill="none" xmlns="http://www.w3.org/2000/svg"><path d="M7.4 11.25H6.4V13.25H7.4V11.25ZM7.6 13.25H8.6V11.25H7.6V13.25ZM15.4 8.5H14.4V10.5H15.4V8.5ZM15.6 10.5H16.6V8.5H15.6V10.5ZM10.4 7H9.4V9H10.4V7ZM10.6 9H11.6V7H10.6V9ZM7 12.25C7 11.9739 7.22386 11.75 7.5 11.75V13.75C8.32843 13.75 9 13.0784 9 12.25H7ZM7.5 11.75C7.77614 11.75 8 11.9739 8 12.25H6C6 13.0784 6.67157 13.75 7.5 13.75V11.75ZM8 12.25C8 12.5261 7.77614 12.75 7.5 12.75V10.75C6.67157 10.75 6 11.4216 6 12.25H8ZM7.5 12.75C7.22386 12.75 7 12.5261 7 12.25H9C9 11.4216 8.32843 10.75 7.5 10.75V12.75ZM15 9.5C15 9.22386 15.2239 9 15.5 9V11C16.3284 11 17 10.3284 17 9.5H15ZM15.5 9C15.7761 9 16 9.22386 16 9.5H14C14 10.3284 14.6716 11 15.5 11V9ZM16 9.5C16 9.77614 15.7761 10 15.5 10V8C14.6716 8 14 8.67157 14 9.5H16ZM15.5 10C15.2239 10 15 9.77614 15 9.5H17C17 8.67157 16.3284 8 15.5 8V10ZM12 19.5C7.5271 19.5 4 16.0891 4 12H2C2 17.2998 6.53177 21.5 12 21.5V19.5ZM4 12C4 7.91095 7.5271 4.5 12 4.5V2.5C6.53177 2.5 2 6.70021 2 12H4ZM12 4.5C16.4729 4.5 20 7.91095 20 12H22C22 6.70021 17.4682 2.5 12 2.5V4.5ZM20 12C20 13.5786 19.581 14.0563 19.2921 14.2361C18.9042 14.4775 18.2607 14.5224 17.2336 14.3889C16.7375 14.3243 16.2569 14.236 15.7115 14.1503C15.1923 14.0687 14.6354 13.9936 14.1011 13.9858C13.0367 13.9703 11.7662 14.2315 11.1056 15.5528L12.8944 16.4472C13.04 16.156 13.2977 15.9743 14.0719 15.9856C14.457 15.9912 14.8971 16.0469 15.401 16.126C15.8788 16.2011 16.4476 16.3035 16.9757 16.3722C17.9971 16.505 19.3012 16.5862 20.3489 15.934C21.4956 15.2203 22 13.8745 22 12H20ZM11.1056 15.5528C10.6885 16.3868 10.8107 17.2221 11.0282 17.8666C11.2381 18.4885 11.5952 19.0909 11.8078 19.4797C11.9271 19.6979 12.0018 19.847 12.0433 19.9569C12.0928 20.0878 12.0416 20.0281 12.0725 19.8775C12.1227 19.6322 12.3012 19.5021 12.3753 19.4702C12.3936 19.4623 12.3055 19.5 12 19.5V21.5C12.4013 21.5 12.8121 21.4596 13.1661 21.3072C13.576 21.1307 13.9272 20.7897 14.0318 20.2788C14.117 19.8626 14.0021 19.4825 13.9142 19.2501C13.8185 18.9968 13.6825 18.7396 13.5626 18.5203C13.2968 18.0341 13.0613 17.6365 12.9232 17.2271C12.7927 16.8404 12.8115 16.6132 12.8944 16.4472L11.1056 15.5528ZM7.4 13.25H7.6V11.25H7.4V13.25ZM15.4 10.5H15.6V8.5H15.4V10.5ZM10 8C10 7.72386 10.2239 7.5 10.5 7.5V9.5C11.3284 9.5 12 8.82843 12 8H10ZM10.5 7.5C10.7761 7.5 11 7.72386 11 8H9C9 8.82843 9.67157 9.5 10.5 9.5V7.5ZM11 8C11 8.27614 10.7761 8.5 10.5 8.5V6.5C9.67157 6.5 9 7.17157 9 8H11ZM10.5 8.5C10.2239 8.5 10 8.27614 10 8H12C12 7.17157 11.3284 6.5 10.5 6.5V8.5ZM10.4 9H10.6V7H10.4V9Z" fill="#2E2F37"></path></svg>