<svg width="35" height="26" viewBox="0 0 35 26" fill="none" xmlns="http://www.w3.org/2000/svg"><path d="M5.5 1V22.08C5.5 23.69 6.84 25 8.5 25H26.5C28.16 25 29.5 23.69 29.5 22.08V1H5.5ZM21.21 6.24H13.8C13 6.24 12.34 5.6 12.34 4.82C12.34 4.04 12.99 3.4 13.8 3.4H21.21C22.01 3.4 22.67 4.04 22.67 4.82C22.67 5.6 22.02 6.24 21.21 6.24Z" fill="white" stroke="black" stroke-linecap="round" stroke-linejoin="round"></path><path d="M22.7999 11.7701L18.2699 9.23009C17.7899 8.96009 17.1999 8.96009 16.7199 9.23009L12.1899 11.7701C11.6899 12.0501 11.3799 12.5801 11.3799 13.1501V18.1701C11.3799 18.7401 11.6899 19.2701 12.1899 19.5501L16.7199 22.0901C17.1999 22.3601 17.7899 22.3601 18.2699 22.0901L22.7999 19.5501C23.2999 19.2701 23.6099 18.7401 23.6099 18.1701V13.1501C23.6099 12.5801 23.2999 12.0501 22.7999 11.7701Z" fill="white" stroke="black" stroke-linecap="round" stroke-linejoin="round"></path><path d="M20.4002 16.3401C20.1002 17.6301 18.8902 18.5801 17.4802 18.5501C16.0702 18.5201 15.0002 17.5801 14.7002 16.3501" stroke="black" stroke-linecap="round" stroke-linejoin="round"></path><path d="M20.1002 13.24C20.0202 13.62 19.6802 13.9 19.2702 13.9C18.8602 13.9 18.5402 13.64 18.4502 13.28" stroke="black" stroke-linecap="round" stroke-linejoin="round"></path><path d="M16.65 13.24C16.57 13.62 16.23 13.9 15.82 13.9C15.41 13.9 15.09 13.64 15 13.28" stroke="black" stroke-linecap="round" stroke-linejoin="round"></path><path d="M14.2798 16.4101C14.5798 16.3701 14.8698 16.2701 15.1298 16.1101" stroke="black" stroke-linecap="round" stroke-linejoin="round"></path></svg>