<svg width="35" height="24" viewBox="0 0 35 24" fill="none" xmlns="http://www.w3.org/2000/svg"><g clip-path="url(#clip0_229_3613)"><path d="M27.65 1.40503C25.45 5.06503 20.14 7.63503 13.95 7.63503V15.645C20.15 15.645 25.45 18.225 27.65 21.875V1.40503Z" fill="white" stroke="black" stroke-linecap="round" stroke-linejoin="round"></path><path d="M11.961 13.3617L8.89105 13.9718L10.6044 22.5932L13.6744 21.9831L11.961 13.3617Z" fill="white" stroke="black" stroke-linecap="round" stroke-linejoin="round"></path><path d="M9.46 7.67505C7.27 7.67505 5.5 9.44505 5.5 11.635C5.5 13.825 7.27 15.595 9.46 15.595H13.94V7.67505H9.46Z" fill="white" stroke="black" stroke-linecap="round" stroke-linejoin="round"></path><path d="M27.65 1.40503C26.79 1.40503 26.07 4.65503 25.86 9.05503C26.91 9.45503 27.65 10.455 27.65 11.645C27.65 12.835 26.9 13.835 25.86 14.235C26.07 18.635 26.79 21.885 27.65 21.885C28.67 21.885 29.5 17.305 29.5 11.645C29.5 5.98503 28.67 1.40503 27.65 1.40503Z" fill="white" stroke="black" stroke-linecap="round" stroke-linejoin="round"></path><path d="M27.65 11.6451C27.65 10.4551 26.9 9.45505 25.86 9.05505C25.82 9.88505 25.8 10.7451 25.8 11.6451C25.8 12.5451 25.82 13.4051 25.86 14.2351C26.91 13.8351 27.65 12.8351 27.65 11.6451Z" fill="white" stroke="black" stroke-linecap="round" stroke-linejoin="round"></path></g><defs><clipPath id="clip0_229_3613"><rect width="25" height="22.19" fill="white" transform="translate(5 0.905029)"></rect></clipPath></defs></svg>