<svg width="35" height="26" viewBox="0 0 35 26" fill="none" xmlns="http://www.w3.org/2000/svg"><path d="M27.8358 3.53766L12.9487 10.0957L19.4992 25L34.3863 18.4419L27.8358 3.53766Z" fill="white" stroke="black" stroke-linecap="round" stroke-linejoin="round"></path><path d="M22.603 17.2664C23.7322 18.7631 25.7891 19.3098 27.5439 18.4765C29.235 17.6697 30.1097 15.8334 29.7651 14.0713" fill="white"></path><path d="M22.603 17.2664C23.7322 18.7631 25.7891 19.3098 27.5439 18.4765C29.235 17.6697 30.1097 15.8334 29.7651 14.0713" stroke="black" stroke-linecap="round" stroke-linejoin="round"></path><path d="M22.2002 13.822C22.5183 14.2625 23.1067 14.4377 23.621 14.2042C24.1352 13.9706 24.379 13.4558 24.2942 12.9463" fill="white"></path><path d="M22.2002 13.822C22.5183 14.2625 23.1067 14.4377 23.621 14.2042C24.1352 13.9706 24.379 13.4558 24.2942 12.9463" stroke="black" stroke-linecap="round" stroke-linejoin="round"></path><path d="M25.6934 12.3728C26.0114 12.8133 26.5999 12.9885 27.1141 12.7549C27.6283 12.5214 27.8722 12.0066 27.7874 11.4971" fill="white"></path><path d="M25.6934 12.3728C26.0114 12.8133 26.5999 12.9885 27.1141 12.7549C27.6283 12.5214 27.8722 12.0066 27.7874 11.4971" stroke="black" stroke-linecap="round" stroke-linejoin="round"></path><path d="M10.3776 20.517C15.7701 20.517 20.1415 16.148 20.1415 10.7585C20.1415 5.36904 15.7701 1 10.3776 1C4.9852 1 0.61377 5.36904 0.61377 10.7585C0.61377 16.148 4.9852 20.517 10.3776 20.517Z" fill="white" stroke="black" stroke-linecap="round" stroke-linejoin="round"></path><path d="M9.51904 13.1778C10.5641 14.7432 12.5999 15.4112 14.4139 14.6736C16.2278 13.936 17.1413 12.1695 16.8987 10.3823" fill="white"></path><path d="M9.51904 13.1778C10.5641 14.7432 12.5999 15.4112 14.4139 14.6736C16.2278 13.936 17.1413 12.1695 16.8987 10.3823" stroke="black" stroke-linecap="round" stroke-linejoin="round"></path><path d="M15.3724 8.51321C15.0807 8.05404 14.4974 7.8451 13.9683 8.0463C13.4573 8.23977 13.1631 8.75053 13.2199 9.26902" fill="white"></path><path d="M15.3724 8.51321C15.0807 8.05404 14.4974 7.8451 13.9683 8.0463C13.4573 8.23977 13.1631 8.75053 13.2199 9.26902" stroke="black" stroke-linecap="round" stroke-linejoin="round"></path><path d="M11.7801 9.76663C11.4885 9.30746 10.9052 9.09851 10.3761 9.29972C9.86502 9.49319 9.57079 10.0039 9.62757 10.5224" fill="white"></path><path d="M11.7801 9.76663C11.4885 9.30746 10.9052 9.09851 10.3761 9.29972C9.86502 9.49319 9.57079 10.0039 9.62757 10.5224" stroke="black" stroke-linecap="round" stroke-linejoin="round"></path></svg>